<?xml version="1.0" encoding="UTF-8" standalone="no"?>
<!DOCTYPE svg PUBLIC "-//W3C//DTD SVG 1.1//EN"
 "http://www.w3.org/Graphics/SVG/1.1/DTD/svg11.dtd">
<!-- Generated by graphviz version 2.47.3 (20210619.2315)
 -->
<!-- Title: snakemake_dag Pages: 1 -->
<svg width="940pt" height="260pt"
 viewBox="0.00 0.00 940.00 260.00" xmlns="http://www.w3.org/2000/svg" xmlns:xlink="http://www.w3.org/1999/xlink">
<g id="graph0" class="graph" transform="scale(1 1) rotate(0) translate(4 256)">
<title>snakemake_dag</title>
<polygon fill="white" stroke="transparent" points="-4,4 -4,-256 936,-256 936,4 -4,4"/>
<!-- 0 -->
<g id="node1" class="node">
<title>0</title>
<path fill="none" stroke="#d8bc56" stroke-width="2" d="M478.5,-36C478.5,-36 448.5,-36 448.5,-36 442.5,-36 436.5,-30 436.5,-24 436.5,-24 436.5,-12 436.5,-12 436.5,-6 442.5,0 448.5,0 448.5,0 478.5,0 478.5,0 484.5,0 490.5,-6 490.5,-12 490.5,-12 490.5,-24 490.5,-24 490.5,-30 484.5,-36 478.5,-36"/>
<text text-anchor="middle" x="463.5" y="-15.5" font-family="sans" font-size="10.00">all</text>
</g>
<!-- 1 -->
<g id="node2" class="node">
<title>1</title>
<path fill="none" stroke="#88d856" stroke-width="2" d="M486,-108C486,-108 441,-108 441,-108 435,-108 429,-102 429,-96 429,-96 429,-84 429,-84 429,-78 435,-72 441,-72 441,-72 486,-72 486,-72 492,-72 498,-78 498,-84 498,-84 498,-96 498,-96 498,-102 492,-108 486,-108"/>
<text text-anchor="middle" x="463.5" y="-87.5" font-family="sans" font-size="10.00">stree_infer</text>
</g>
<!-- 1&#45;&gt;0 -->
<g id="edge1" class="edge">
<title>1&#45;&gt;0</title>
<path fill="none" stroke="grey" stroke-width="2" d="M463.5,-71.7C463.5,-63.98 463.5,-54.71 463.5,-46.11"/>
<polygon fill="grey" stroke="grey" stroke-width="2" points="467,-46.1 463.5,-36.1 460,-46.1 467,-46.1"/>
</g>
<!-- 2 -->
<g id="node3" class="node">
<title>2</title>
<path fill="none" stroke="#56c1d8" stroke-width="2" d="M64.5,-180C64.5,-180 18.5,-180 18.5,-180 12.5,-180 6.5,-174 6.5,-168 6.5,-168 6.5,-156 6.5,-156 6.5,-150 12.5,-144 18.5,-144 18.5,-144 64.5,-144 64.5,-144 70.5,-144 76.5,-150 76.5,-156 76.5,-156 76.5,-168 76.5,-168 76.5,-174 70.5,-180 64.5,-180"/>
<text text-anchor="middle" x="41.5" y="-165" font-family="sans" font-size="10.00">gtree_infer</text>
<text text-anchor="middle" x="41.5" y="-154" font-family="sans" font-size="10.00">g: p0003</text>
</g>
<!-- 2&#45;&gt;1 -->
<g id="edge2" class="edge">
<title>2&#45;&gt;1</title>
<path fill="none" stroke="grey" stroke-width="2" d="M76.65,-148.37C81.92,-146.74 87.32,-145.22 92.5,-144 208.45,-116.63 348.32,-101.3 418.59,-94.79"/>
<polygon fill="grey" stroke="grey" stroke-width="2" points="419.2,-98.25 428.84,-93.85 418.57,-91.27 419.2,-98.25"/>
</g>
<!-- 3 -->
<g id="node4" class="node">
<title>3</title>
<path fill="none" stroke="#d85656" stroke-width="2" d="M65,-252C65,-252 12,-252 12,-252 6,-252 0,-246 0,-240 0,-240 0,-228 0,-228 0,-222 6,-216 12,-216 12,-216 65,-216 65,-216 71,-216 77,-222 77,-228 77,-228 77,-240 77,-240 77,-246 71,-252 65,-252"/>
<text text-anchor="middle" x="38.5" y="-237" font-family="sans" font-size="10.00">align</text>
<text text-anchor="middle" x="38.5" y="-226" font-family="sans" font-size="10.00">gene: p0003</text>
</g>
<!-- 3&#45;&gt;2 -->
<g id="edge12" class="edge">
<title>3&#45;&gt;2</title>
<path fill="none" stroke="grey" stroke-width="2" d="M39.24,-215.7C39.57,-207.98 39.97,-198.71 40.34,-190.11"/>
<polygon fill="grey" stroke="grey" stroke-width="2" points="43.84,-190.25 40.77,-180.1 36.84,-189.95 43.84,-190.25"/>
</g>
<!-- 4 -->
<g id="node5" class="node">
<title>4</title>
<path fill="none" stroke="#56c1d8" stroke-width="2" d="M159.5,-180C159.5,-180 113.5,-180 113.5,-180 107.5,-180 101.5,-174 101.5,-168 101.5,-168 101.5,-156 101.5,-156 101.5,-150 107.5,-144 113.5,-144 113.5,-144 159.5,-144 159.5,-144 165.5,-144 171.5,-150 171.5,-156 171.5,-156 171.5,-168 171.5,-168 171.5,-174 165.5,-180 159.5,-180"/>
<text text-anchor="middle" x="136.5" y="-165" font-family="sans" font-size="10.00">gtree_infer</text>
<text text-anchor="middle" x="136.5" y="-154" font-family="sans" font-size="10.00">g: p0010</text>
</g>
<!-- 4&#45;&gt;1 -->
<g id="edge3" class="edge">
<title>4&#45;&gt;1</title>
<path fill="none" stroke="grey" stroke-width="2" d="M171.71,-148.59C176.97,-146.93 182.35,-145.35 187.5,-144 267.99,-122.96 363.7,-106.43 418.65,-97.74"/>
<polygon fill="grey" stroke="grey" stroke-width="2" points="419.41,-101.17 428.75,-96.16 418.33,-94.25 419.41,-101.17"/>
</g>
<!-- 5 -->
<g id="node6" class="node">
<title>5</title>
<path fill="none" stroke="#d85656" stroke-width="2" d="M160,-252C160,-252 107,-252 107,-252 101,-252 95,-246 95,-240 95,-240 95,-228 95,-228 95,-222 101,-216 107,-216 107,-216 160,-216 160,-216 166,-216 172,-222 172,-228 172,-228 172,-240 172,-240 172,-246 166,-252 160,-252"/>
<text text-anchor="middle" x="133.5" y="-237" font-family="sans" font-size="10.00">align</text>
<text text-anchor="middle" x="133.5" y="-226" font-family="sans" font-size="10.00">gene: p0010</text>
</g>
<!-- 5&#45;&gt;4 -->
<g id="edge13" class="edge">
<title>5&#45;&gt;4</title>
<path fill="none" stroke="grey" stroke-width="2" d="M134.24,-215.7C134.57,-207.98 134.97,-198.71 135.34,-190.11"/>
<polygon fill="grey" stroke="grey" stroke-width="2" points="138.84,-190.25 135.77,-180.1 131.84,-189.95 138.84,-190.25"/>
</g>
<!-- 6 -->
<g id="node7" class="node">
<title>6</title>
<path fill="none" stroke="#56c1d8" stroke-width="2" d="M254.5,-180C254.5,-180 208.5,-180 208.5,-180 202.5,-180 196.5,-174 196.5,-168 196.5,-168 196.5,-156 196.5,-156 196.5,-150 202.5,-144 208.5,-144 208.5,-144 254.5,-144 254.5,-144 260.5,-144 266.5,-150 266.5,-156 266.5,-156 266.5,-168 266.5,-168 266.5,-174 260.5,-180 254.5,-180"/>
<text text-anchor="middle" x="231.5" y="-165" font-family="sans" font-size="10.00">gtree_infer</text>
<text text-anchor="middle" x="231.5" y="-154" font-family="sans" font-size="10.00">g: p0011</text>
</g>
<!-- 6&#45;&gt;1 -->
<g id="edge4" class="edge">
<title>6&#45;&gt;1</title>
<path fill="none" stroke="grey" stroke-width="2" d="M266.56,-149.12C271.89,-147.37 277.33,-145.62 282.5,-144 328.77,-129.52 382.07,-114.06 418.79,-103.6"/>
<polygon fill="grey" stroke="grey" stroke-width="2" points="420.02,-106.88 428.69,-100.78 418.11,-100.15 420.02,-106.88"/>
</g>
<!-- 7 -->
<g id="node8" class="node">
<title>7</title>
<path fill="none" stroke="#d85656" stroke-width="2" d="M255,-252C255,-252 202,-252 202,-252 196,-252 190,-246 190,-240 190,-240 190,-228 190,-228 190,-222 196,-216 202,-216 202,-216 255,-216 255,-216 261,-216 267,-222 267,-228 267,-228 267,-240 267,-240 267,-246 261,-252 255,-252"/>
<text text-anchor="middle" x="228.5" y="-237" font-family="sans" font-size="10.00">align</text>
<text text-anchor="middle" x="228.5" y="-226" font-family="sans" font-size="10.00">gene: p0011</text>
</g>
<!-- 7&#45;&gt;6 -->
<g id="edge14" class="edge">
<title>7&#45;&gt;6</title>
<path fill="none" stroke="grey" stroke-width="2" d="M229.24,-215.7C229.57,-207.98 229.97,-198.71 230.34,-190.11"/>
<polygon fill="grey" stroke="grey" stroke-width="2" points="233.84,-190.25 230.77,-180.1 226.84,-189.95 233.84,-190.25"/>
</g>
<!-- 8 -->
<g id="node9" class="node">
<title>8</title>
<path fill="none" stroke="#56c1d8" stroke-width="2" d="M349.5,-180C349.5,-180 303.5,-180 303.5,-180 297.5,-180 291.5,-174 291.5,-168 291.5,-168 291.5,-156 291.5,-156 291.5,-150 297.5,-144 303.5,-144 303.5,-144 349.5,-144 349.5,-144 355.5,-144 361.5,-150 361.5,-156 361.5,-156 361.5,-168 361.5,-168 361.5,-174 355.5,-180 349.5,-180"/>
<text text-anchor="middle" x="326.5" y="-165" font-family="sans" font-size="10.00">gtree_infer</text>
<text text-anchor="middle" x="326.5" y="-154" font-family="sans" font-size="10.00">g: p0013</text>
</g>
<!-- 8&#45;&gt;1 -->
<g id="edge5" class="edge">
<title>8&#45;&gt;1</title>
<path fill="none" stroke="grey" stroke-width="2" d="M360.01,-143.88C378.34,-134.51 401.24,-122.81 420.83,-112.8"/>
<polygon fill="grey" stroke="grey" stroke-width="2" points="422.54,-115.86 429.86,-108.19 419.36,-109.62 422.54,-115.86"/>
</g>
<!-- 9 -->
<g id="node10" class="node">
<title>9</title>
<path fill="none" stroke="#d85656" stroke-width="2" d="M350,-252C350,-252 297,-252 297,-252 291,-252 285,-246 285,-240 285,-240 285,-228 285,-228 285,-222 291,-216 297,-216 297,-216 350,-216 350,-216 356,-216 362,-222 362,-228 362,-228 362,-240 362,-240 362,-246 356,-252 350,-252"/>
<text text-anchor="middle" x="323.5" y="-237" font-family="sans" font-size="10.00">align</text>
<text text-anchor="middle" x="323.5" y="-226" font-family="sans" font-size="10.00">gene: p0013</text>
</g>
<!-- 9&#45;&gt;8 -->
<g id="edge15" class="edge">
<title>9&#45;&gt;8</title>
<path fill="none" stroke="grey" stroke-width="2" d="M324.24,-215.7C324.57,-207.98 324.97,-198.71 325.34,-190.11"/>
<polygon fill="grey" stroke="grey" stroke-width="2" points="328.84,-190.25 325.77,-180.1 321.84,-189.95 328.84,-190.25"/>
</g>
<!-- 10 -->
<g id="node11" class="node">
<title>10</title>
<path fill="none" stroke="#56c1d8" stroke-width="2" d="M442.5,-180C442.5,-180 396.5,-180 396.5,-180 390.5,-180 384.5,-174 384.5,-168 384.5,-168 384.5,-156 384.5,-156 384.5,-150 390.5,-144 396.5,-144 396.5,-144 442.5,-144 442.5,-144 448.5,-144 454.5,-150 454.5,-156 454.5,-156 454.5,-168 454.5,-168 454.5,-174 448.5,-180 442.5,-180"/>
<text text-anchor="middle" x="419.5" y="-165" font-family="sans" font-size="10.00">gtree_infer</text>
<text text-anchor="middle" x="419.5" y="-154" font-family="sans" font-size="10.00">g: p0015</text>
</g>
<!-- 10&#45;&gt;1 -->
<g id="edge6" class="edge">
<title>10&#45;&gt;1</title>
<path fill="none" stroke="grey" stroke-width="2" d="M430.38,-143.7C435.49,-135.56 441.7,-125.69 447.34,-116.7"/>
<polygon fill="grey" stroke="grey" stroke-width="2" points="450.39,-118.43 452.75,-108.1 444.46,-114.71 450.39,-118.43"/>
</g>
<!-- 11 -->
<g id="node12" class="node">
<title>11</title>
<path fill="none" stroke="#d85656" stroke-width="2" d="M445,-252C445,-252 392,-252 392,-252 386,-252 380,-246 380,-240 380,-240 380,-228 380,-228 380,-222 386,-216 392,-216 392,-216 445,-216 445,-216 451,-216 457,-222 457,-228 457,-228 457,-240 457,-240 457,-246 451,-252 445,-252"/>
<text text-anchor="middle" x="418.5" y="-237" font-family="sans" font-size="10.00">align</text>
<text text-anchor="middle" x="418.5" y="-226" font-family="sans" font-size="10.00">gene: p0015</text>
</g>
<!-- 11&#45;&gt;10 -->
<g id="edge16" class="edge">
<title>11&#45;&gt;10</title>
<path fill="none" stroke="grey" stroke-width="2" d="M418.75,-215.7C418.86,-207.98 418.99,-198.71 419.11,-190.11"/>
<polygon fill="grey" stroke="grey" stroke-width="2" points="422.61,-190.15 419.26,-180.1 415.61,-190.05 422.61,-190.15"/>
</g>
<!-- 12 -->
<g id="node13" class="node">
<title>12</title>
<path fill="none" stroke="#56c1d8" stroke-width="2" d="M531.5,-180C531.5,-180 485.5,-180 485.5,-180 479.5,-180 473.5,-174 473.5,-168 473.5,-168 473.5,-156 473.5,-156 473.5,-150 479.5,-144 485.5,-144 485.5,-144 531.5,-144 531.5,-144 537.5,-144 543.5,-150 543.5,-156 543.5,-156 543.5,-168 543.5,-168 543.5,-174 537.5,-180 531.5,-180"/>
<text text-anchor="middle" x="508.5" y="-165" font-family="sans" font-size="10.00">gtree_infer</text>
<text text-anchor="middle" x="508.5" y="-154" font-family="sans" font-size="10.00">g: p0016</text>
</g>
<!-- 12&#45;&gt;1 -->
<g id="edge7" class="edge">
<title>12&#45;&gt;1</title>
<path fill="none" stroke="grey" stroke-width="2" d="M497.38,-143.7C492.14,-135.56 485.8,-125.69 480.02,-116.7"/>
<polygon fill="grey" stroke="grey" stroke-width="2" points="482.85,-114.62 474.5,-108.1 476.96,-118.41 482.85,-114.62"/>
</g>
<!-- 13 -->
<g id="node14" class="node">
<title>13</title>
<path fill="none" stroke="#d85656" stroke-width="2" d="M540,-252C540,-252 487,-252 487,-252 481,-252 475,-246 475,-240 475,-240 475,-228 475,-228 475,-222 481,-216 487,-216 487,-216 540,-216 540,-216 546,-216 552,-222 552,-228 552,-228 552,-240 552,-240 552,-246 546,-252 540,-252"/>
<text text-anchor="middle" x="513.5" y="-237" font-family="sans" font-size="10.00">align</text>
<text text-anchor="middle" x="513.5" y="-226" font-family="sans" font-size="10.00">gene: p0016</text>
</g>
<!-- 13&#45;&gt;12 -->
<g id="edge17" class="edge">
<title>13&#45;&gt;12</title>
<path fill="none" stroke="grey" stroke-width="2" d="M512.26,-215.7C511.71,-207.98 511.05,-198.71 510.44,-190.11"/>
<polygon fill="grey" stroke="grey" stroke-width="2" points="513.93,-189.83 509.72,-180.1 506.94,-190.33 513.93,-189.83"/>
</g>
<!-- 14 -->
<g id="node15" class="node">
<title>14</title>
<path fill="none" stroke="#56c1d8" stroke-width="2" d="M621.5,-180C621.5,-180 575.5,-180 575.5,-180 569.5,-180 563.5,-174 563.5,-168 563.5,-168 563.5,-156 563.5,-156 563.5,-150 569.5,-144 575.5,-144 575.5,-144 621.5,-144 621.5,-144 627.5,-144 633.5,-150 633.5,-156 633.5,-156 633.5,-168 633.5,-168 633.5,-174 627.5,-180 621.5,-180"/>
<text text-anchor="middle" x="598.5" y="-165" font-family="sans" font-size="10.00">gtree_infer</text>
<text text-anchor="middle" x="598.5" y="-154" font-family="sans" font-size="10.00">g: p0021</text>
</g>
<!-- 14&#45;&gt;1 -->
<g id="edge8" class="edge">
<title>14&#45;&gt;1</title>
<path fill="none" stroke="grey" stroke-width="2" d="M565.48,-143.88C547.42,-134.51 524.85,-122.81 505.55,-112.8"/>
<polygon fill="grey" stroke="grey" stroke-width="2" points="507.14,-109.69 496.65,-108.19 503.92,-115.9 507.14,-109.69"/>
</g>
<!-- 15 -->
<g id="node16" class="node">
<title>15</title>
<path fill="none" stroke="#d85656" stroke-width="2" d="M635,-252C635,-252 582,-252 582,-252 576,-252 570,-246 570,-240 570,-240 570,-228 570,-228 570,-222 576,-216 582,-216 582,-216 635,-216 635,-216 641,-216 647,-222 647,-228 647,-228 647,-240 647,-240 647,-246 641,-252 635,-252"/>
<text text-anchor="middle" x="608.5" y="-237" font-family="sans" font-size="10.00">align</text>
<text text-anchor="middle" x="608.5" y="-226" font-family="sans" font-size="10.00">gene: p0021</text>
</g>
<!-- 15&#45;&gt;14 -->
<g id="edge18" class="edge">
<title>15&#45;&gt;14</title>
<path fill="none" stroke="grey" stroke-width="2" d="M606.03,-215.7C604.93,-207.98 603.6,-198.71 602.37,-190.11"/>
<polygon fill="grey" stroke="grey" stroke-width="2" points="605.82,-189.51 600.94,-180.1 598.89,-190.5 605.82,-189.51"/>
</g>
<!-- 16 -->
<g id="node17" class="node">
<title>16</title>
<path fill="none" stroke="#56c1d8" stroke-width="2" d="M713.5,-180C713.5,-180 667.5,-180 667.5,-180 661.5,-180 655.5,-174 655.5,-168 655.5,-168 655.5,-156 655.5,-156 655.5,-150 661.5,-144 667.5,-144 667.5,-144 713.5,-144 713.5,-144 719.5,-144 725.5,-150 725.5,-156 725.5,-156 725.5,-168 725.5,-168 725.5,-174 719.5,-180 713.5,-180"/>
<text text-anchor="middle" x="690.5" y="-165" font-family="sans" font-size="10.00">gtree_infer</text>
<text text-anchor="middle" x="690.5" y="-154" font-family="sans" font-size="10.00">g: p0037</text>
</g>
<!-- 16&#45;&gt;1 -->
<g id="edge9" class="edge">
<title>16&#45;&gt;1</title>
<path fill="none" stroke="grey" stroke-width="2" d="M655.44,-148.35C651.1,-146.85 646.7,-145.37 642.5,-144 597,-129.22 544.45,-113.86 508.12,-103.51"/>
<polygon fill="grey" stroke="grey" stroke-width="2" points="508.89,-100.09 498.32,-100.72 506.98,-106.82 508.89,-100.09"/>
</g>
<!-- 17 -->
<g id="node18" class="node">
<title>17</title>
<path fill="none" stroke="#d85656" stroke-width="2" d="M730,-252C730,-252 677,-252 677,-252 671,-252 665,-246 665,-240 665,-240 665,-228 665,-228 665,-222 671,-216 677,-216 677,-216 730,-216 730,-216 736,-216 742,-222 742,-228 742,-228 742,-240 742,-240 742,-246 736,-252 730,-252"/>
<text text-anchor="middle" x="703.5" y="-237" font-family="sans" font-size="10.00">align</text>
<text text-anchor="middle" x="703.5" y="-226" font-family="sans" font-size="10.00">gene: p0037</text>
</g>
<!-- 17&#45;&gt;16 -->
<g id="edge19" class="edge">
<title>17&#45;&gt;16</title>
<path fill="none" stroke="grey" stroke-width="2" d="M700.29,-215.7C698.85,-207.98 697.13,-198.71 695.54,-190.11"/>
<polygon fill="grey" stroke="grey" stroke-width="2" points="698.94,-189.3 693.68,-180.1 692.06,-190.58 698.94,-189.3"/>
</g>
<!-- 18 -->
<g id="node19" class="node">
<title>18</title>
<path fill="none" stroke="#56c1d8" stroke-width="2" d="M810.5,-180C810.5,-180 764.5,-180 764.5,-180 758.5,-180 752.5,-174 752.5,-168 752.5,-168 752.5,-156 752.5,-156 752.5,-150 758.5,-144 764.5,-144 764.5,-144 810.5,-144 810.5,-144 816.5,-144 822.5,-150 822.5,-156 822.5,-156 822.5,-168 822.5,-168 822.5,-174 816.5,-180 810.5,-180"/>
<text text-anchor="middle" x="787.5" y="-165" font-family="sans" font-size="10.00">gtree_infer</text>
<text text-anchor="middle" x="787.5" y="-154" font-family="sans" font-size="10.00">g: p0038</text>
</g>
<!-- 18&#45;&gt;1 -->
<g id="edge10" class="edge">
<title>18&#45;&gt;1</title>
<path fill="none" stroke="grey" stroke-width="2" d="M752.32,-149.08C746.4,-147.26 740.3,-145.49 734.5,-144 655.55,-123.69 561.92,-106.98 507.94,-98.05"/>
<polygon fill="grey" stroke="grey" stroke-width="2" points="508.45,-94.58 498.01,-96.42 507.31,-101.49 508.45,-94.58"/>
</g>
<!-- 19 -->
<g id="node20" class="node">
<title>19</title>
<path fill="none" stroke="#d85656" stroke-width="2" d="M825,-252C825,-252 772,-252 772,-252 766,-252 760,-246 760,-240 760,-240 760,-228 760,-228 760,-222 766,-216 772,-216 772,-216 825,-216 825,-216 831,-216 837,-222 837,-228 837,-228 837,-240 837,-240 837,-246 831,-252 825,-252"/>
<text text-anchor="middle" x="798.5" y="-237" font-family="sans" font-size="10.00">align</text>
<text text-anchor="middle" x="798.5" y="-226" font-family="sans" font-size="10.00">gene: p0038</text>
</g>
<!-- 19&#45;&gt;18 -->
<g id="edge20" class="edge">
<title>19&#45;&gt;18</title>
<path fill="none" stroke="grey" stroke-width="2" d="M795.78,-215.7C794.57,-207.98 793.11,-198.71 791.76,-190.11"/>
<polygon fill="grey" stroke="grey" stroke-width="2" points="795.2,-189.44 790.19,-180.1 788.28,-190.53 795.2,-189.44"/>
</g>
<!-- 20 -->
<g id="node21" class="node">
<title>20</title>
<path fill="none" stroke="#56c1d8" stroke-width="2" d="M915.5,-180C915.5,-180 869.5,-180 869.5,-180 863.5,-180 857.5,-174 857.5,-168 857.5,-168 857.5,-156 857.5,-156 857.5,-150 863.5,-144 869.5,-144 869.5,-144 915.5,-144 915.5,-144 921.5,-144 927.5,-150 927.5,-156 927.5,-156 927.5,-168 927.5,-168 927.5,-174 921.5,-180 915.5,-180"/>
<text text-anchor="middle" x="892.5" y="-165" font-family="sans" font-size="10.00">gtree_infer</text>
<text text-anchor="middle" x="892.5" y="-154" font-family="sans" font-size="10.00">g: p0040</text>
</g>
<!-- 20&#45;&gt;1 -->
<g id="edge11" class="edge">
<title>20&#45;&gt;1</title>
<path fill="none" stroke="grey" stroke-width="2" d="M857.21,-150.33C848.83,-148.03 839.89,-145.77 831.5,-144 716,-119.69 577.74,-103.07 508.16,-95.55"/>
<polygon fill="grey" stroke="grey" stroke-width="2" points="508.32,-92.05 498,-94.47 507.58,-99.01 508.32,-92.05"/>
</g>
<!-- 21 -->
<g id="node22" class="node">
<title>21</title>
<path fill="none" stroke="#d85656" stroke-width="2" d="M920,-252C920,-252 867,-252 867,-252 861,-252 855,-246 855,-240 855,-240 855,-228 855,-228 855,-222 861,-216 867,-216 867,-216 920,-216 920,-216 926,-216 932,-222 932,-228 932,-228 932,-240 932,-240 932,-246 926,-252 920,-252"/>
<text text-anchor="middle" x="893.5" y="-237" font-family="sans" font-size="10.00">align</text>
<text text-anchor="middle" x="893.5" y="-226" font-family="sans" font-size="10.00">gene: p0040</text>
</g>
<!-- 21&#45;&gt;20 -->
<g id="edge21" class="edge">
<title>21&#45;&gt;20</title>
<path fill="none" stroke="grey" stroke-width="2" d="M893.25,-215.7C893.14,-207.98 893.01,-198.71 892.89,-190.11"/>
<polygon fill="grey" stroke="grey" stroke-width="2" points="896.39,-190.05 892.74,-180.1 889.39,-190.15 896.39,-190.05"/>
</g>
</g>
</svg>
